<?xml version="1.0" encoding="UTF-8"?>
<svg data-bbox="0 7.081 185.762 21.838" height="36" width="192.364" viewBox="0 0 192.364 36" xmlns="http://www.w3.org/2000/svg" data-type="color">
    <g>
        <g transform="matrix(.28 0 0 .28 164.364 4)" color="#2F6690">
            <svg viewBox="0 0 100 100" height="100" width="100">
                <path d="M59.19 35.645a1.058 1.058 0 0 1-1.498-.021 1.06 1.06 0 0 1 .021-1.498c3.163-3.076 2.063-9.433 2.052-9.497a1.06 1.06 0 0 1 2.084-.377c.056.305 1.316 7.525-2.659 11.393zm3.418-12.99c1.086 1.039 1.634 2.663 1.626 4.827a1.06 1.06 0 0 0 1.056 1.063h.004a1.06 1.06 0 0 0 1.059-1.056c.01-2.768-.759-4.91-2.282-6.366-2.033-1.943-4.707-1.971-5.477-1.933-2.412.118-4.243.942-5.443 2.448-1.981 2.49-1.399 5.891-1.374 6.034a1.06 1.06 0 0 0 2.086-.371c-.004-.026-.433-2.624.954-4.354.804-1.003 2.109-1.556 3.881-1.642.395-.018 2.45-.044 3.91 1.35zm13.806 13.306c-.045 1.243-.184 5.024-2.947 7.31-1.489 1.232-3.507 1.852-6.019 1.852-.887 0-1.835-.078-2.844-.232a1.08 1.08 0 0 1-.172-.042c-1.139.588-2.686.877-4.742.877a27 27 0 0 1-1.632-.054 1.074 1.074 0 0 1-.218.265c-3.63 3.167-6.949 4.089-9.918 4.089-1.441 0-2.799-.217-4.071-.5-4.099-.911-6.173-3.505-7.192-5.521a12.317 12.317 0 0 1-1.088-3.203c-5.003-.121-8.503-1.241-10.411-3.336-1.186-1.302-1.723-2.957-1.551-4.786.101-1.079.582-1.981 1.391-2.613-.512-2.515.747-5.927 2.44-8.213.437-.589.899-1.1 1.376-1.529.038-1.49.903-6.986 11.387-9.002 3.506-.674 6.444-.281 8.656 1.131 1.982-.531 9.096-1.961 14.557 3.009.04.035.071.075.104.114.009.002.018.003.026.006 3.897.961 6.29 2.479 7.62 7.627.813.606 2.611 2.241 2.817 4.932.707.909 2.58 3.719 2.431 7.819zm-49.398-6.789a8.733 8.733 0 0 1 1.979-.184c.016-3.608 1.708-5.647 3.305-6.768a4.003 4.003 0 0 1-.334-1.321c-1.259.284-2.353 1.583-2.822 2.217-1.397 1.884-2.232 4.389-2.128 6.056zm46.546 2.49c-.346 1.228-.963 2.59-2.064 3.641-1.204 1.151-2.759 1.733-4.624 1.733-.214 0-.431-.008-.651-.023a1.058 1.058 0 1 1 .145-2.114c1.558.107 2.756-.26 3.663-1.122 1.894-1.802 1.855-5.177 1.854-5.211v-.001c-.046-2.467-2.105-3.749-2.193-3.802a1.072 1.072 0 0 1-.484-.661c-1.173-4.897-3.111-5.708-6.166-6.461-2.528-.623-4.384.974-4.402.991a1.06 1.06 0 0 1-1.4-1.592c.068-.061 1.135-.978 2.814-1.423-3.348-1.928-7.071-1.752-9.228-1.406.04.049.081.097.12.148a1.058 1.058 0 1 1-1.668 1.304c-2.207-2.823-5.936-2.787-8.675-2.26-6.489 1.249-8.631 3.819-9.334 5.498a4.377 4.377 0 0 1 1.221-.174c.394-.681.967-1.262 1.599-1.708a1.068 1.068 0 0 1 1.61.287c.23.405.216 1.023-.357 1.422-1.081.751-1.468 1.589-1.158 2.495l.103-.039a1.06 1.06 0 0 1 .723 1.991c-1.984.72-4.262 2.495-3.85 6.862a1.058 1.058 0 0 1-1.224 1.146c-.498-.079-1.704-.157-2.699.116a1.044 1.044 0 0 1-1 .494c-.31.268-.477.614-.521 1.085-.116 1.236.224 2.3 1.008 3.162 1.044 1.147 3.423 2.501 8.825 2.643a3.745 3.745 0 0 1 .838-1.555c.976-1.088 2.555-1.639 4.696-1.639 1.485 0 2.25.484 2.81.838.345.218.476.293.701.294h.01c1 0 1.414-.749 1.913-2.318.064-.201.125-.39.188-.564.439-1.19 1.319-1.86 2.401-2.228-1.062-1.325-.977-2.874-.963-3.05a1.058 1.058 0 0 1 2.113.159c-.022.382.004 2.26 2.565 2.48.888-.062 1.53-.367 1.961-.936.996-1.316.723-3.805.533-4.652a1.06 1.06 0 0 1 2.067-.468c.037.163.886 4.016-.906 6.392-.809 1.074-2.041 1.689-3.563 1.783l-.018.001-.019.001-.056.002h-.026c-3.614-.078-3.944.818-4.103 1.249-.047.129-.101.296-.157.474-.392 1.233-1.207 3.794-3.93 3.794h-.022c-.845-.004-1.387-.347-1.823-.623-.45-.285-.806-.51-1.677-.51-1.492 0-2.57.324-3.118.935a1.634 1.634 0 0 0-.423 1.098l.001.024.003.026c.018.256.502 6.378 6.763 7.769 3.222.716 6.757.918 10.878-2.108a1.059 1.059 0 0 1 .539-2.027c4.421.551 7.229.288 8.348-.782.336-.322.77-.917.652-2.366-.036-.454-.197-.756-.52-.979-1.297-.896-4.459-.272-5.465.017a1.06 1.06 0 1 1-.585-2.036c.494-.143 4.908-1.346 7.255.276.845.585 1.339 1.467 1.426 2.551.093 1.152-.069 2.141-.48 2.957 2.528.189 4.462-.251 5.757-1.322 1.821-1.506 2.117-4.006 2.181-5.755a10.22 10.22 0 0 0-.732-4.223zm-7.361 1.551c2.949-.402 3.29-3.125 3.29-5.139a1.06 1.06 0 1 0-2.119 0c0 2.841-.877 2.96-1.458 3.04-.504.068-.883 0-1.159-.212-.391-.299-.541-.87-.567-1.067a1.059 1.059 0 0 0-2.105.234c.018.16.2 1.586 1.358 2.493.427.334 1.12.694 2.132.694a4.5 4.5 0 0 0 .628-.043zm-16.014 4.839.005.015-1.99.726c.075.205 1.556 4.016 7.916 4.016 1.688 0 3.722-.269 6.163-.946a1.059 1.059 0 1 0-.566-2.042c-9.622 2.669-11.455-1.587-11.528-1.769zm1.705.373c.097.01.453.041.942.041.935 0 2.35-.116 3.325-.727a1.06 1.06 0 1 0-1.123-1.796c-.662.415-2.152.449-2.937.374a1.06 1.06 0 1 0-.207 2.108zm-1.253-18.169.01-.027c-.003.008-.193.459-.881 1.145-.081-.362-.003-.593.033-.7.435-1.282 2.852-2.371 4.273-2.757a1.058 1.058 0 0 0-.552-2.045c-.487.131-4.787 1.36-5.726 4.118-.224.657-.324 1.619.23 2.758-.377.245-.805.499-1.292.757-4.179 2.214-3.825 6.121-3.055 7.878a1.06 1.06 0 1 0 1.939-.851c-.059-.134-1.397-3.299 2.107-5.156 4.055-2.149 4.845-4.218 4.921-4.446l-2.007-.674zm-6.396 3.682a1.06 1.06 0 0 0-1.08-1.821c-.182.107-4.443 2.697-3.313 9.257a1.059 1.059 0 0 0 2.087-.36c-.871-5.054 2.16-6.986 2.306-7.076zm3.393 19.966c-4.91-.248-5.669-3.63-5.703-3.792a1.06 1.06 0 0 0-2.081.393c.331 1.79 2.362 5.246 7.678 5.514l.054.001a1.06 1.06 0 0 0 .052-2.116zm-13.524-8.059c-1.479-.53-1.264-1.942-1.208-2.21a1.058 1.058 0 0 0-1.332-1.253c-1.667.493-3.778.345-3.799.344a1.059 1.059 0 1 0-.158 2.113c.079.005 1.56.112 3.177-.128.171 1.171.842 2.497 2.605 3.128a1.06 1.06 0 0 0 .715-1.994zm38.691.601a1.058 1.058 0 0 0-1.408.512 2.96 2.96 0 0 1-2.383 1.738 1.06 1.06 0 0 0 .047 2.117h.039c.117-.004 2.898-.134 4.217-2.96a1.06 1.06 0 0 0-.512-1.407zM41.253 16.84a1.058 1.058 0 0 0-1.356.636c-.036.098-.856 2.426.169 4.788a1.06 1.06 0 1 0 1.943-.844c-.678-1.562-.132-3.191-.119-3.229a1.057 1.057 0 0 0-.637-1.351zm-2.662 8.105a1.06 1.06 0 0 0 .798-1.755c-.803-.92-.807-2.835-.809-3.864v-.021c-.001-.548.078-1.905.832-2.659.386-.387.918-.575 1.626-.575 1.215 0 2.265 0 2.56 2.367a1.058 1.058 0 1 0 2.102-.262c-.526-4.223-3.424-4.223-4.662-4.223-1.282 0-2.333.402-3.125 1.196-1.267 1.269-1.453 3.151-1.451 4.16v.021c.003 1.306.007 3.736 1.332 5.253.208.24.502.362.797.362zm3.373 8.16c-1.063.253-1.838.15-2.368-.315-1.091-.957-1.107-3.308-1.021-4.133a1.06 1.06 0 0 0-2.107-.225c-.044.414-.376 4.095 1.725 5.946.742.653 1.658.981 2.737.981a6.58 6.58 0 0 0 1.526-.193 1.06 1.06 0 1 0-.492-2.061zm-6.283-8.855c-1.373.335-3.761 2.206-2.97 6.883a1.06 1.06 0 0 0 2.089-.353c-.636-3.767 1.195-4.417 1.406-4.479l-.021.005-.504-2.056zm18.118 58.328a1.06 1.06 0 0 0-1.008 1.109 2.912 2.912 0 0 1-.826 2.158 3.357 3.357 0 0 1-2.417 1.033 3.245 3.245 0 0 1-3.242-3.242 1.06 1.06 0 1 0-2.118 0 5.365 5.365 0 0 0 5.36 5.36 5.485 5.485 0 0 0 3.95-1.689c.975-1.023 1.475-2.345 1.409-3.723a1.062 1.062 0 0 0-1.108-1.006zm1.051-8.068H44.258a1.059 1.059 0 1 0 0 2.119H54.85a1.06 1.06 0 0 0 0-2.119zm0 2.647H44.258a1.06 1.06 0 0 0 0 2.119H54.85a1.06 1.06 0 1 0 0-2.119zm0 2.649H44.258a1.059 1.059 0 1 0 0 2.118H54.85a1.06 1.06 0 1 0 0-2.118zm14.67-30.63a1.06 1.06 0 0 0-1.479.239c-2.081 2.884-4.755 5.402-7.946 7.488-4.405 2.878-4.405 5.396-4.405 7.418v5.708a1.59 1.59 0 0 1-1.589 1.588h-8.948a1.59 1.59 0 0 1-1.589-1.588v-5.708c0-2.022 0-4.54-4.405-7.418C30.231 51.07 28.09 43.498 28.07 43.424a1.06 1.06 0 0 0-2.047.546c.091.34 2.332 8.405 11.977 14.706 3.445 2.251 3.445 3.824 3.445 5.646v5.708a3.711 3.711 0 0 0 3.707 3.706H54.1a3.711 3.711 0 0 0 3.707-3.706v-5.708c0-1.821 0-3.395 3.445-5.646 3.41-2.228 6.272-4.927 8.506-8.021a1.059 1.059 0 0 0-.238-1.479z" fill="#2F6690" data-color="1"/>
            </svg>
        </g>
        <path d="M0 18.542q0-2.01.56-3.64.55-1.62 1.64-2.75 1.09-1.14 2.72-1.76 1.62-.61 3.76-.61.44 0 .99.03.56.04 1.14.11.58.07 1.13.19.55.11.98.28.43.17.69.4.27.23.27.52 0 .21-.15.46l-.98 1.65q-.39-.21-.91-.57-.53-.35-1.17-.69-.64-.33-1.37-.58-.73-.24-1.52-.24-.92 0-1.63.3-.71.29-1.24.81t-.88 1.2q-.36.69-.58 1.46-.22.77-.31 1.59-.09.81-.09 1.57 0 .94.17 1.84.17.89.51 1.69.35.8.86 1.46.52.66 1.21 1.14.69.48 1.56.75.87.27 1.91.27.88 0 1.73-.15.86-.15 1.56-.34.81-.21 1.55-.49l.48.91q-.66.52-1.39.88-.73.35-1.52.58-.79.22-1.62.32-.83.1-1.66.1-1.92 0-3.47-.61-1.55-.61-2.65-1.74-1.1-1.13-1.69-2.74-.59-1.6-.59-3.6Zm16-3.45q.24-.11.69-.2.44-.1.98-.16.53-.05 1.09-.09.55-.03 1.01-.03.25 0 .43.01.19.01.32.07.13.06.19.18.07.12.07.36v2.81l1.49-2.12q.56-.77 1.24-1.14.69-.37 1.56-.37.15 0 .39.01.24.02.47.09.23.07.39.2t.16.35v.1q0 .03-.02.09l-.5 1.65q-.45-.14-.81-.2-.35-.05-.66-.05-.63 0-1.2.35-.58.36-1.06.85-.48.48-.85.98t-.6.77v3.64q0 .73.03 1.28.04.55.09.96.05.41.11.69.06.27.1.44-.17.09-.37.15-.21.07-.44.12-.23.05-.45.08-.23.02-.42.02-.3 0-.55-.05-.25-.05-.43-.18-.19-.13-.29-.35-.1-.22-.1-.54v-9.89H16v-.88Zm14.77 4.84h6.07q.07-.24.1-.47.02-.24.02-.49 0-.58-.19-1.16-.2-.58-.56-1.05-.37-.47-.92-.76-.54-.29-1.25-.29-.9 0-1.5.34-.61.35-.99.93-.38.58-.55 1.35-.18.76-.23 1.6Zm-2.73.84q0-1.39.45-2.56.46-1.17 1.3-2.01.85-.84 2.09-1.32 1.23-.47 2.78-.47 1.18 0 2.1.37.93.38 1.57 1.01.65.63.99 1.46.34.84.34 1.74 0 .42-.07.84t-.27.76q-.2.34-.57.56-.36.22-.95.22h-7q.11 1.05.55 1.86.43.81 1.11 1.37.68.55 1.57.83.89.29 1.92.29.71 0 1.46-.13.75-.12 1.54-.38l.39.79q-.48.32-1.03.56-.55.23-1.14.38-.58.15-1.19.22t-1.2.07q-1.29 0-2.5-.41-1.21-.4-2.16-1.21-.94-.81-1.51-2.02-.57-1.2-.57-2.82Zm22.05 5.09v-.12l-.16.1q-.16.1-.44.25-.27.15-.64.33-.37.19-.81.34-.44.16-.91.27-.48.1-.96.1-.76 0-1.45-.2-.69-.21-1.21-.64-.53-.43-.84-1.09-.31-.66-.31-1.57 0-1.01.45-1.71.46-.7 1.26-1.14.8-.44 1.91-.64 1.12-.19 2.45-.19h1.66v-.88q0-.68-.06-1.31-.05-.62-.24-1.09-.2-.47-.57-.75-.36-.28-.99-.28-.59 0-1.19.21-.6.22-1.17.55-.58.33-1.1.72-.53.39-.97.74l-.96-1.29q-.17-.21-.17-.43 0-.39.48-.7.49-.32 1.22-.55.74-.23 1.58-.35.84-.13 1.57-.13 1.08 0 2.04.25.96.26 1.68.82.72.56 1.14 1.44.42.89.42 2.15v6.53h2.04v.88q-.2.1-.54.2-.35.09-.77.16-.42.07-.88.11-.47.03-.89.03-.28 0-.57-.03-.3-.04-.54-.16-.24-.13-.39-.34-.16-.22-.17-.59Zm-3.1-.46q.41 0 .95-.11.53-.11 1.01-.24.56-.15 1.14-.37v-3.29h-1.97q-.45 0-.98.08-.53.09-1 .31-.46.23-.78.64-.31.41-.31 1.08 0 .42.13.77.12.34.37.6.25.25.61.39t.83.14Zm13.9-10.63h4.08v.5q0 .53-.23.74-.23.2-.73.2h-3.12v6.87q0 1.31.48 1.98.48.68 1.47.68.43 0 .89-.11.45-.1.82-.22.36-.12.59-.2.23-.09.22-.07l.37.81q-.41.26-.82.47-.41.22-.87.38-.45.16-.98.25-.53.08-1.18.08-.86 0-1.55-.26-.68-.26-1.16-.76-.48-.49-.74-1.2-.26-.72-.26-1.62v-7.08h-2.42v-.53q0-.52.22-.72.23-.19.74-.19h1.46v-2.79q0-.32.1-.53.1-.22.29-.34.19-.13.43-.18.25-.05.55-.05.19 0 .42.02.23.03.46.07.22.04.43.11.2.07.37.16-.04.17-.09.44-.06.28-.12.7-.05.42-.08 1.01-.04.59-.04 1.38Zm10.85.41v10.42h2.04v.88q-.2.1-.54.2-.35.09-.77.16-.42.07-.88.11-.46.03-.88.03-.36 0-.67-.04-.3-.04-.53-.16-.23-.13-.36-.34-.13-.22-.13-.58v-9.94h-2.06v-.88q.25-.11.69-.2.45-.09.98-.15t1.09-.1q.56-.03 1.01-.03.25 0 .44.01t.31.07q.13.06.2.18.06.13.06.36Zm-3-4.49q0-.33.13-.62t.35-.5q.23-.21.53-.34.3-.12.64-.12t.65.12q.3.13.53.34.22.21.35.5.13.29.13.62t-.13.61q-.13.28-.35.49-.23.21-.53.34-.31.12-.65.12t-.64-.12q-.3-.13-.53-.34-.22-.21-.35-.49-.13-.28-.13-.61Zm10.71 4.42q.01.02.17.45.16.42.41 1.09.26.66.58 1.52.33.85.67 1.74.34.88.68 1.74.34.85.62 1.53.27.67.46 1.11.19.43.25.46.38-.6.81-1.47.43-.86.78-1.8.36-.93.6-1.88.23-.94.23-1.71 0-.41-.06-.76-.07-.36-.16-.64-.1-.29-.2-.54-.09-.24-.18-.44l1.54-.76q.41-.19.67-.19.21 0 .35.11.15.11.24.28.09.16.12.36.04.21.04.4 0 .61-.23 1.46-.22.86-.59 1.84-.37.99-.84 2.04-.48 1.06-.98 2.08-.5 1.03-.99 1.96-.49.94-.89 1.68h-1.23q-.39 0-.76-.21t-.57-.7l-3.89-9.14-1.85.82-.37-.82q.28-.25.8-.61.52-.37 1.09-.71.57-.35 1.11-.59.54-.25.87-.25.22 0 .4.12.19.13.3.43Zm13.7 4.82h6.07q.07-.24.1-.47.02-.24.02-.49 0-.58-.19-1.16-.2-.58-.57-1.05-.37-.47-.91-.76-.54-.29-1.25-.29-.9 0-1.5.34-.61.35-.99.93-.38.58-.55 1.35-.18.76-.23 1.6Zm-2.73.84q0-1.39.45-2.56.45-1.17 1.3-2.01.85-.84 2.08-1.32 1.23-.47 2.79-.47 1.17 0 2.1.37.93.38 1.57 1.01.65.63.99 1.46.34.84.34 1.74 0 .42-.08.84-.07.42-.26.76-.2.34-.57.56-.36.22-.95.22h-7q.11 1.05.55 1.86.43.81 1.11 1.37.68.55 1.57.83.89.29 1.92.29.71 0 1.46-.13.75-.12 1.54-.38l.39.79q-.48.32-1.03.56-.55.23-1.14.38-.59.15-1.19.22-.61.07-1.2.07-1.29 0-2.5-.41-1.21-.4-2.16-1.21-.94-.81-1.51-2.02-.57-1.2-.57-2.82Zm18.38-10.17v14.52h2.12q1.57 0 3.15-.21 1.58-.21 3.11-.71 0 .02.03.13.04.11.08.3.05.18.09.42.04.24.04.48 0 .51-.26.79-.27.29-.88.41-.62.13-1.63.16-1.01.02-2.51.02-.8 0-1.6-.01-.81-.01-1.5-.03-.7-.02-1.25-.05-.54-.03-.83-.05-.55-.05-.74-.28-.18-.22-.18-.73v-14.31h-2.26v-.92q.18-.1.53-.19.35-.09.81-.18.47-.08 1.02-.12.55-.05 1.12-.05.46 0 .75.01t.47.06q.18.06.25.19t.07.35Zm14.32 4.58v10.42h2.04v.88q-.2.1-.55.2-.34.09-.77.16-.42.07-.88.11-.45.03-.87.03-.37 0-.67-.04-.31-.04-.54-.16-.22-.13-.35-.34-.13-.22-.13-.58v-9.94h-2.06v-.88q.24-.11.69-.2.44-.09.98-.15.53-.06 1.09-.1.55-.03 1.01-.03.25 0 .43.01.19.01.32.07.13.06.19.18.07.13.07.36Zm-3-4.49q0-.33.13-.62t.35-.5q.22-.21.53-.34.3-.12.64-.12t.64.12q.31.13.53.34.22.21.35.5.13.29.13.62t-.13.61q-.13.28-.35.49-.22.21-.53.34-.3.12-.64.12t-.64-.12q-.31-.13-.53-.34-.22-.21-.35-.49-.13-.28-.13-.61Zm8.67 15.17v-9.92h-2.06v-.88q.24-.1.69-.2.44-.09.98-.15.53-.06 1.09-.09.55-.04 1.01-.04.25 0 .43.01.19.02.32.07.13.06.19.19.07.12.07.35v.58q.17-.06.65-.28.47-.23 1.15-.47.68-.24 1.49-.43.81-.19 1.65-.19 1.02 0 1.66.28.63.28.98.78t.47 1.18q.13.67.13 1.48v7.47h2.04v.88q-.2.1-.55.2-.34.09-.77.16-.42.07-.87.11-.46.03-.88.03-.37 0-.67-.04-.31-.04-.53-.16-.22-.13-.35-.34-.13-.22-.13-.58v-7.49q0-.6-.06-1.02-.07-.42-.25-.69-.18-.27-.5-.4-.33-.12-.83-.12-.33 0-.72.05-.39.04-.81.12-.42.08-.81.16-.39.08-.71.16-.33.07-.54.13-.21.06-.24.07v6.41q0 .73.03 1.28.04.55.09.96.05.41.11.69.06.27.1.44-.17.09-.37.15-.21.07-.44.12-.23.05-.45.08-.23.02-.42.02-.3 0-.55-.05-.25-.05-.43-.18-.19-.13-.29-.35-.1-.22-.1-.54Zm16.14-15.72h-2.08v-.89q.25-.1.7-.2.45-.09.98-.15.52-.06 1.08-.09.56-.04 1.02-.04.24 0 .43.01t.32.07q.12.06.19.18.06.13.06.36v13.85q0 1.44.13 2.24.13.8.21 1.13-.16.09-.37.15-.21.07-.44.12-.23.05-.46.08-.23.02-.41.02-.3 0-.55-.05-.25-.05-.43-.18t-.28-.35q-.1-.22-.1-.54v-15.72Zm10.17 5.13q0 .38-.23.8-.23.42-.61.86t-.87.89q-.48.44-1.01.86-.52.41-1.02.8l-.91.69 3.71 4.75 1.73-1.13.47.72q-.21.4-.6.84-.39.44-.87.8-.47.36-.98.6-.5.23-.92.23-.27 0-.53-.13-.27-.13-.48-.42l-3.84-4.92q-.05-.06-.09-.13-.08-.14-.08-.32 0-.13.06-.26.06-.14.2-.26.25-.23.63-.54.39-.32.82-.69.43-.38.86-.81.43-.43.78-.86.34-.43.56-.87.22-.43.22-.83 0-.31-.1-.55.6-.29.96-.49.36-.19.58-.3.22-.11.39-.15.16-.04.37-.04.4 0 .6.25.2.25.2.61Z" fill="#00BFFF" data-color="2"/>
    </g>
</svg>
